name rise30.8019peak61.5557fall86.2505.mot
datacolumns 19
datarows 27
range 20.07825900000000 20.12160400000000
endheader
time	ground_force1_vx	ground_force1_vy	ground_force1_vz	ground_force1_px	ground_force1_py	ground_force1_pz	ground_force2_vx	ground_force2_vy	ground_force2_vz	ground_force2_px	ground_force2_py	ground_force2_pz	ground_torque1_x	ground_torque1_y	ground_torque1_z	ground_torque2_x	ground_torque2_y	ground_torque2_z	
20.07825900000000	56.50868600000000	770.67033200000003	49.19242000000000	0.24914000000000	0.00000000000000	0.10610600000000	0.00000000000000	0.00000000000000	0.00000000000000	0.00000000000000	0.00000000000000	0.00000000000000	0.00000000000000	12.58297000000000	0.00000000000000	0.00000000000000	0.00000000000000	0.00000000000000	
20.07993000000000	55.83495000000000	771.51626999999996	49.39536400000000	0.24807100000000	0.00000000000000	0.10614500000000	0.00000000000000	0.00000000000000	0.00000000000000	0.00000000000000	0.00000000000000	0.00000000000000	0.00000000000000	12.68539400000000	0.00000000000000	0.00000000000000	0.00000000000000	0.00000000000000	
20.08159100000000	55.14846800000000	772.19180900000003	49.59459700000000	0.24698500000000	0.00000000000000	0.10618600000000	0.00000000000000	0.00000000000000	0.00000000000000	0.00000000000000	0.00000000000000	0.00000000000000	0.00000000000000	12.78750200000000	0.00000000000000	0.00000000000000	0.00000000000000	0.00000000000000	
20.08325800000000	54.44931300000000	772.69857600000000	49.78929200000000	0.24587900000000	0.00000000000000	0.10622900000000	0.00000000000000	0.00000000000000	0.00000000000000	0.00000000000000	0.00000000000000	0.00000000000000	0.00000000000000	12.88893800000000	0.00000000000000	0.00000000000000	0.00000000000000	0.00000000000000	
20.08492900000000	53.73758000000000	773.03851599999996	49.97860400000000	0.24475400000000	0.00000000000000	0.10627400000000	0.00000000000000	0.00000000000000	0.00000000000000	0.00000000000000	0.00000000000000	0.00000000000000	0.00000000000000	12.98934000000000	0.00000000000000	0.00000000000000	0.00000000000000	0.00000000000000	
20.08659200000000	53.01338800000000	773.21388500000000	50.16167200000000	0.24360900000000	0.00000000000000	0.10632000000000	0.00000000000000	0.00000000000000	0.00000000000000	0.00000000000000	0.00000000000000	0.00000000000000	0.00000000000000	13.08833900000000	0.00000000000000	0.00000000000000	0.00000000000000	0.00000000000000	
20.08826000000000	52.27688100000000	773.22725400000002	50.33762900000000	0.24244300000000	0.00000000000000	0.10636700000000	0.00000000000000	0.00000000000000	0.00000000000000	0.00000000000000	0.00000000000000	0.00000000000000	0.00000000000000	13.18557000000000	0.00000000000000	0.00000000000000	0.00000000000000	0.00000000000000	
20.08992400000000	51.52823400000000	773.08150100000000	50.50560500000000	0.24125500000000	0.00000000000000	0.10641600000000	0.00000000000000	0.00000000000000	0.00000000000000	0.00000000000000	0.00000000000000	0.00000000000000	0.00000000000000	13.28066500000000	0.00000000000000	0.00000000000000	0.00000000000000	0.00000000000000	
20.09159700000000	50.76765400000000	772.77980300000002	50.66473700000000	0.24004500000000	0.00000000000000	0.10646500000000	0.00000000000000	0.00000000000000	0.00000000000000	0.00000000000000	0.00000000000000	0.00000000000000	0.00000000000000	13.37326400000000	0.00000000000000	0.00000000000000	0.00000000000000	0.00000000000000	
20.09325500000000	49.99538200000000	772.32563600000003	50.81417000000000	0.23881200000000	0.00000000000000	0.10651600000000	0.00000000000000	0.00000000000000	0.00000000000000	0.00000000000000	0.00000000000000	0.00000000000000	0.00000000000000	13.46301000000000	0.00000000000000	0.00000000000000	0.00000000000000	0.00000000000000	
20.09492800000000	49.21169300000000	771.72276099999999	50.95306600000000	0.23755700000000	0.00000000000000	0.10656800000000	0.00000000000000	0.00000000000000	0.00000000000000	0.00000000000000	0.00000000000000	0.00000000000000	0.00000000000000	13.54955800000000	0.00000000000000	0.00000000000000	0.00000000000000	0.00000000000000	
20.09659300000000	48.41690100000000	770.97521800000004	51.08060800000000	0.23628000000000	0.00000000000000	0.10662100000000	0.00000000000000	0.00000000000000	0.00000000000000	0.00000000000000	0.00000000000000	0.00000000000000	0.00000000000000	13.63257400000000	0.00000000000000	0.00000000000000	0.00000000000000	0.00000000000000	
20.09825700000000	47.61135800000000	770.08731399999999	51.19600900000000	0.23497900000000	0.00000000000000	0.10667500000000	0.00000000000000	0.00000000000000	0.00000000000000	0.00000000000000	0.00000000000000	0.00000000000000	0.00000000000000	13.71173800000000	0.00000000000000	0.00000000000000	0.00000000000000	0.00000000000000	
20.09994000000000	46.79545300000000	769.06361600000002	51.29851300000000	0.23365600000000	0.00000000000000	0.10672900000000	0.00000000000000	0.00000000000000	0.00000000000000	0.00000000000000	0.00000000000000	0.00000000000000	0.00000000000000	13.78674600000000	0.00000000000000	0.00000000000000	0.00000000000000	0.00000000000000	
20.10159500000000	45.96961700000000	767.90893300000005	51.38740000000000	0.23231000000000	0.00000000000000	0.10678300000000	0.00000000000000	0.00000000000000	0.00000000000000	0.00000000000000	0.00000000000000	0.00000000000000	0.00000000000000	13.85731300000000	0.00000000000000	0.00000000000000	0.00000000000000	0.00000000000000	
20.10325900000000	45.13431800000000	766.62831000000006	51.46199600000000	0.23094200000000	0.00000000000000	0.10683800000000	0.00000000000000	0.00000000000000	0.00000000000000	0.00000000000000	0.00000000000000	0.00000000000000	0.00000000000000	13.92317200000000	0.00000000000000	0.00000000000000	0.00000000000000	0.00000000000000	
20.10492700000000	44.29006600000000	765.22700599999996	51.52167300000000	0.22955200000000	0.00000000000000	0.10689300000000	0.00000000000000	0.00000000000000	0.00000000000000	0.00000000000000	0.00000000000000	0.00000000000000	0.00000000000000	13.98408100000000	0.00000000000000	0.00000000000000	0.00000000000000	0.00000000000000	
20.10659700000000	43.43740900000000	763.71048699999994	51.56585300000000	0.22814200000000	0.00000000000000	0.10694900000000	0.00000000000000	0.00000000000000	0.00000000000000	0.00000000000000	0.00000000000000	0.00000000000000	0.00000000000000	14.03981900000000	0.00000000000000	0.00000000000000	0.00000000000000	0.00000000000000	
20.10826400000000	42.57693100000000	762.08440700000006	51.59401400000000	0.22671000000000	0.00000000000000	0.10700400000000	0.00000000000000	0.00000000000000	0.00000000000000	0.00000000000000	0.00000000000000	0.00000000000000	0.00000000000000	14.09019200000000	0.00000000000000	0.00000000000000	0.00000000000000	0.00000000000000	
20.10992300000000	41.70925700000000	760.35459200000003	51.60569400000000	0.22525900000000	0.00000000000000	0.10705800000000	0.00000000000000	0.00000000000000	0.00000000000000	0.00000000000000	0.00000000000000	0.00000000000000	0.00000000000000	14.13502800000000	0.00000000000000	0.00000000000000	0.00000000000000	0.00000000000000	
20.11158900000000	40.83504500000000	758.52702499999998	51.60048900000000	0.22378900000000	0.00000000000000	0.10711300000000	0.00000000000000	0.00000000000000	0.00000000000000	0.00000000000000	0.00000000000000	0.00000000000000	0.00000000000000	14.17418700000000	0.00000000000000	0.00000000000000	0.00000000000000	0.00000000000000	
20.11326500000000	39.95498700000000	756.60782700000004	51.57806300000000	0.22230100000000	0.00000000000000	0.10716700000000	0.00000000000000	0.00000000000000	0.00000000000000	0.00000000000000	0.00000000000000	0.00000000000000	0.00000000000000	14.20755100000000	0.00000000000000	0.00000000000000	0.00000000000000	0.00000000000000	
20.11492800000000	39.06980700000000	754.60324100000003	51.53814400000000	0.22079600000000	0.00000000000000	0.10722000000000	0.00000000000000	0.00000000000000	0.00000000000000	0.00000000000000	0.00000000000000	0.00000000000000	0.00000000000000	14.23503500000000	0.00000000000000	0.00000000000000	0.00000000000000	0.00000000000000	
20.11659600000000	38.18026100000000	752.51961300000005	51.48053200000000	0.21927600000000	0.00000000000000	0.10727200000000	0.00000000000000	0.00000000000000	0.00000000000000	0.00000000000000	0.00000000000000	0.00000000000000	0.00000000000000	14.25657800000000	0.00000000000000	0.00000000000000	0.00000000000000	0.00000000000000	
20.11826200000000	37.28712900000000	750.36337600000002	51.40509200000000	0.21774100000000	0.00000000000000	0.10732300000000	0.00000000000000	0.00000000000000	0.00000000000000	0.00000000000000	0.00000000000000	0.00000000000000	0.00000000000000	14.27214900000000	0.00000000000000	0.00000000000000	0.00000000000000	0.00000000000000	
20.11994600000000	36.39121700000000	748.14102900000000	51.31176500000000	0.21619400000000	0.00000000000000	0.10737300000000	0.00000000000000	0.00000000000000	0.00000000000000	0.00000000000000	0.00000000000000	0.00000000000000	0.00000000000000	14.28174500000000	0.00000000000000	0.00000000000000	0.00000000000000	0.00000000000000	
20.12160400000000	35.49335500000000	745.85912099999996	51.20056000000000	0.21463500000000	0.00000000000000	0.10742200000000	0.00000000000000	0.00000000000000	0.00000000000000	0.00000000000000	0.00000000000000	0.00000000000000	0.00000000000000	14.28539100000000	0.00000000000000	0.00000000000000	0.00000000000000	0.00000000000000	
